Coordinates
version=1
nRows=21
nColumns=33
inDegrees=yes

Units are S.I. units (second, meters, Newtons, ...)
Angles are in degrees.

endheader
time	ground_thorax_rot_x	ground_thorax_rot_y	ground_thorax_rot_z	ground_thorax_tx	ground_thorax_ty	ground_thorax_tz	clav_prot_r	clav_elev_r	scapula_abduction_r	scapula_elevation_r	scapula_upward_rot_r	scapula_winging_r	shoulder_elv_r	plane_of_elev_r	axial_rot_r	elbow_flexion_r	pro_sup_r	wrist_flex_r	wrist_dev_r	clav_prot_l	clav_elev_l	scapula_abduction_l	scapula_elevation_l	scapula_upward_rot_l	scapula_winging_l	shoulder_elv_l	plane_of_elev_l	axial_rot_l	elbow_flexion_l	pro_sup_l	wrist_flex_l	wrist_dev_l	
1.6200	1.971753	0.517961	-0.906102	-0.154679	0.987393	0.006086	-7.833980	-1.135758	-9.510143	4.647472	3.699315	-0.313239	45.871516	-43.962179	33.536034	85.921966	4.011258	16.757336	-9.798961	-8.406490	-0.092310	11.279150	-5.992967	-0.347709	-1.249945	40.825885	-41.353422	-20.408777	81.776979	11.146208	-8.393717	-14.781629	
1.6300	1.940885	0.490883	-0.937047	-0.154520	0.987377	0.005978	-7.718684	-1.267857	-9.306467	4.563633	3.610658	-0.304832	45.424555	-43.309857	32.245558	86.151558	3.576179	14.878483	-8.782789	-8.288243	-0.185800	11.059078	-5.932540	-0.406235	-1.239948	40.702010	-40.506962	-19.786400	82.179696	11.320313	-7.115625	-12.721857	
1.6400	1.908544	0.459191	-0.967769	-0.154350	0.987372	0.005864	-7.599476	-1.432426	-9.095711	4.457513	3.502885	-0.288285	44.976859	-42.571076	30.926424	86.285027	3.105888	13.028434	-7.795474	-8.169828	-0.303172	10.829401	-5.848212	-0.460483	-1.230601	40.574984	-39.589032	-19.168698	82.481309	11.449868	-5.875957	-10.654804	
1.6500	1.866026	0.430691	-0.974390	-0.154222	0.987331	0.005739	-7.451715	-1.599350	-8.859862	4.370864	3.341785	-0.264310	44.493767	-41.725344	29.513807	86.310447	2.567259	11.054414	-6.766177	-8.027608	-0.410908	10.564444	-5.777282	-0.524401	-1.215960	40.442364	-38.576726	-18.536669	82.687680	11.511315	-4.552280	-8.458199	
1.6600	1.824814	0.396245	-0.978514	-0.154107	0.987313	0.005603	-7.287538	-1.808210	-8.598053	4.258334	3.149431	-0.230992	44.028690	-40.784461	28.068334	86.204196	2.030132	9.082547	-5.749736	-7.880104	-0.561837	10.281558	-5.670746	-0.599234	-1.206639	40.314998	-37.495767	-17.885121	82.759597	11.526290	-3.224235	-6.281559	
1.6700	1.777643	0.363639	-0.963824	-0.154044	0.987268	0.005449	-7.091778	-2.034860	-8.304393	4.154034	2.896514	-0.188223	43.569958	-39.717454	26.562876	85.943530	1.467422	7.056255	-4.727548	-7.710521	-0.725197	9.962844	-5.559949	-0.690955	-1.195771	40.197210	-36.321465	-17.226261	82.682181	11.457617	-1.854092	-4.080401	
1.6800	1.729992	0.327594	-0.945743	-0.154018	0.987239	0.005284	-6.873378	-2.311286	-7.981966	4.025435	2.590588	-0.131658	43.158817	-38.529885	25.035595	85.506647	0.918279	5.048267	-3.731387	-7.528059	-0.937399	9.615891	-5.412623	-0.803860	-1.191053	40.102209	-35.071487	-16.557352	82.423561	11.310162	-0.500074	-1.934906	
1.6900	1.673245	0.295174	-0.898707	-0.154084	0.987150	0.005102	-6.606745	-2.598406	-7.614929	3.923819	2.194249	-0.063303	42.769902	-37.196730	23.426864	84.887865	0.343556	2.900007	-2.667758	-7.305473	-1.156225	9.213297	-5.275808	-0.955807	-1.185442	40.034964	-33.722530	-15.871905	82.001518	11.085997	0.941079	0.321061	
1.7000	1.617357	0.260904	-0.842603	-0.154200	0.987056	0.004908	-6.312212	-2.937042	-7.213222	3.799114	1.738301	0.019532	42.455070	-35.747833	21.806145	84.066565	-0.194815	0.742178	-1.582853	-7.059896	-1.430973	8.770536	-5.102483	-1.144505	-1.188816	40.009426	-32.310931	-15.174123	81.386754	10.828591	2.370873	2.554588	
1.7100	1.558188	0.233384	-0.775370	-0.154384	0.986925	0.004700	-5.987491	-3.312857	-6.777700	3.665127	1.221233	0.114148	42.204920	-34.173900	20.169693	83.015303	-0.711951	-1.430646	-0.466475	-6.780234	-1.743697	8.272657	-4.908448	-1.367154	-1.194860	40.030399	-30.824329	-14.482880	80.562868	10.544331	3.787766	4.767835	
1.7200	1.503192	0.213022	-0.711683	-0.154584	0.986823	0.004476	-5.660556	-3.760551	-6.327647	3.470928	0.689545	0.221961	42.041471	-32.519009	18.581163	81.698006	-1.178554	-3.466808	0.604541	-6.484970	-2.132905	7.736013	-4.651345	-1.608123	-1.210046	40.095636	-29.299065	-13.809406	79.492521	10.258031	5.075658	6.805025	
1.7300	1.448914	0.209134	-0.628752	-0.154840	0.986693	0.004235	-5.316384	-4.238250	-5.855688	3.262977	0.124241	0.335979	41.937755	-30.765772	17.003267	80.092371	-1.646735	-5.439078	1.683979	-6.152573	-2.558491	7.138737	-4.373238	-1.878510	-1.224768	40.202519	-27.713144	-13.160069	78.169109	9.961581	6.284883	8.741981	
1.7400	1.399311	0.222601	-0.529490	-0.155135	0.986559	0.003979	-4.962080	-4.753901	-5.364932	3.027521	-0.458530	0.454827	41.901634	-28.937128	15.451399	78.177999	-2.107872	-7.302796	2.768659	-5.786463	-3.033714	6.484228	-4.061898	-2.178631	-1.241422	40.355060	-26.083339	-12.535828	76.577695	9.678448	7.395347	10.539550	
1.7500	1.352937	0.255136	-0.410819	-0.155481	0.986401	0.003713	-4.588325	-5.288563	-4.843524	2.779491	-1.052463	0.572866	41.908422	-27.043473	13.905575	75.950125	-2.577817	-9.099484	3.885060	-5.378878	-3.541122	5.763991	-3.732235	-2.504725	-1.255574	40.548229	-24.407855	-11.935424	74.721507	9.422225	8.455316	12.246140	
1.7600	1.312597	0.306213	-0.271535	-0.155867	0.986222	0.003440	-4.197025	-5.831216	-4.289976	2.523060	-1.642441	0.683236	41.949178	-25.099004	12.366409	73.396580	-3.051086	-10.807905	5.048033	-4.931692	-4.076737	4.983102	-3.388409	-2.858126	-1.265783	40.774717	-22.688543	-11.350700	72.593063	9.220536	9.484479	13.840504	
1.7700	1.280012	0.371830	-0.118402	-0.156282	0.986027	0.003169	-3.789227	-6.377214	-3.700448	2.253823	-2.207156	0.781869	42.016256	-23.124416	10.851674	70.523622	-3.522493	-12.410608	6.239879	-4.449102	-4.635935	4.146739	-3.029287	-3.225339	-1.270610	41.021490	-20.936426	-10.775168	70.191448	9.081795	10.491971	15.299563	
1.7800	1.256851	0.450023	0.050825	-0.156727	0.985799	0.002907	-3.364253	-6.904763	-3.076539	1.992339	-2.747270	0.861058	42.112385	-21.111331	9.372460	67.331149	-3.999928	-13.887959	7.477104	-3.929417	-5.201607	3.256824	-2.672307	-3.610430	-1.264484	41.279716	-19.144697	-10.199423	67.515250	9.010621	11.502529	16.590864	
1.7900	1.245858	0.533795	0.220378	-0.157172	0.985575	0.002663	-2.932453	-7.426167	-2.423333	1.715460	-3.234147	0.921207	42.242752	-19.092103	7.975892	63.839386	-4.468206	-15.182820	8.705763	-3.386431	-5.784270	2.327191	-2.298109	-3.989811	-1.248985	41.534072	-17.345309	-9.613661	64.578262	9.009908	12.496202	17.645525	
1.8000	1.246347	0.622024	0.390451	-0.157612	0.985346	0.002445	-2.494506	-7.922098	-1.744518	1.439747	-3.664516	0.957109	42.401844	-17.066926	6.678277	60.069780	-4.934993	-16.287183	9.915047	-2.821091	-6.366211	1.361899	-1.921154	-4.358714	-1.219391	41.778288	-15.543945	-9.021075	61.404637	9.069193	13.475926	18.448070	
1.8100	1.258527	0.708642	0.560466	-0.158030	0.985129	0.002259	-2.056613	-8.385088	-1.048741	1.167525	-4.027659	0.967863	42.580584	-15.050414	5.508662	56.058307	-5.401439	-17.178192	11.064090	-2.242481	-6.940950	0.374034	-1.542615	-4.705496	-1.175106	42.001368	-13.765169	-8.415001	58.029195	9.170684	14.427963	18.969269	
1.8200	1.278878	0.793074	0.732365	-0.158423	0.984905	0.002113	-1.619101	-8.790853	-0.342545	0.923769	-4.329845	0.948528	42.764615	-13.033884	4.473345	51.846598	-5.879452	-17.855932	12.146178	-1.649514	-7.486286	-0.633471	-1.184087	-5.032909	-1.110586	42.207548	-12.013002	-7.803156	54.502796	9.303030	15.351402	19.211646	
